<svg xmlns="http://www.w3.org/2000/svg" viewBox="0 0 850 140" width="850" height="140">
  <defs>
    <clipPath id="flagClipWhite">
      <rect x="0" y="0" width="170" height="110" rx="4" />
    </clipPath>
  </defs>

  <!-- Left: SECRETARIA DE CULTURA -->
  <g transform="translate(10, 15)">
    <text x="0" y="52" font-family="'Plus Jakarta Sans', 'Inter', -apple-system, sans-serif" font-size="28" font-weight="400" fill="#FFFFFF" letter-spacing="1.5">SECRETARIA DE</text>
    <text x="0" y="98" font-family="'Plus Jakarta Sans', 'Inter', -apple-system, sans-serif" font-size="44" font-weight="900" fill="#FFFFFF" letter-spacing="0.5">CULTURA</text>
  </g>

  <!-- Center: BANDEIRA DO PARÁ (Monochrome White) -->
  <g transform="translate(285, 15)">
    <g clip-path="url(#flagClipWhite)">
      <rect x="0" y="0" width="170" height="110" fill="none" stroke="#FFFFFF" stroke-width="2" />
      <!-- Triangles -->
      <polygon points="45,0 170,0 170,85" fill="#FFFFFF" />
      <polygon points="0,25 0,110 125,110" fill="#FFFFFF" />
      <!-- Center Star -->
      <polygon points="85,25 93,48 117,48 98,62 105,85 85,71 65,85 72,62 53,48 77,48" fill="#FFFFFF" />
    </g>
    <rect x="0" y="0" width="170" height="110" rx="4" fill="none" stroke="#FFFFFF" stroke-width="2" />
  </g>

  <!-- Right: GOVERNO DO PARÁ -->
  <g transform="translate(485, 15)">
    <text x="0" y="32" font-family="'Plus Jakarta Sans', 'Inter', -apple-system, sans-serif" font-size="28" font-weight="800" fill="#FFFFFF" letter-spacing="3">GOVERNO DO</text>
    <text x="0" y="105" font-family="'Plus Jakarta Sans', 'Inter', -apple-system, sans-serif" font-size="92" font-weight="900" fill="#FFFFFF" letter-spacing="1">PARÁ</text>
  </g>
</svg>